<?xml version="1.0" encoding="UTF-8" standalone="no"?>
<!-- Created with Inkscape (http://www.inkscape.org/) -->

<svg
   xmlns:dc="http://purl.org/dc/elements/1.1/"
   xmlns:cc="http://creativecommons.org/ns#"
   xmlns:rdf="http://www.w3.org/1999/02/22-rdf-syntax-ns#"
   xmlns:svg="http://www.w3.org/2000/svg"
   xmlns="http://www.w3.org/2000/svg"
   xmlns:sodipodi="http://sodipodi.sourceforge.net/DTD/sodipodi-0.dtd"
   xmlns:inkscape="http://www.inkscape.org/namespaces/inkscape"
   width="560"
   height="755"
   viewBox="0 0 148.16666 199.76042"
   version="1.1"
   id="svg201"
   inkscape:version="0.92.3 (2405546, 2018-03-11)"
   sodipodi:docname="logoBBLL.svg">
  <defs
     id="defs195" />
  <sodipodi:namedview
     id="base"
     pagecolor="#ffffff"
     bordercolor="#666666"
     borderopacity="1.0"
     inkscape:pageopacity="0.0"
     inkscape:pageshadow="2"
     inkscape:zoom="0.26393991"
     inkscape:cx="944.62494"
     inkscape:cy="461.02416"
     inkscape:document-units="mm"
     inkscape:current-layer="layer1"
     showgrid="false"
     inkscape:snap-object-midpoints="true"
     inkscape:snap-bbox="true"
     inkscape:snap-bbox-midpoints="true"
     showguides="true"
     inkscape:guide-bbox="true"
     inkscape:snap-page="true"
     inkscape:window-width="1920"
     inkscape:window-height="1025"
     inkscape:window-x="0"
     inkscape:window-y="27"
     inkscape:window-maximized="1"
     inkscape:bbox-nodes="true"
     inkscape:snap-intersection-paths="true"
     inkscape:object-paths="true"
     inkscape:bbox-paths="true"
     inkscape:snap-bbox-edge-midpoints="true"
     inkscape:snap-smooth-nodes="true"
     inkscape:snap-center="true"
     inkscape:snap-nodes="true"
     inkscape:snap-others="true"
     inkscape:snap-global="true"
     units="px" />
  <metadata
     id="metadata198">
    <rdf:RDF>
      <cc:Work
         rdf:about="">
        <dc:format>image/svg+xml</dc:format>
        <dc:type
           rdf:resource="http://purl.org/dc/dcmitype/StillImage" />
        <dc:title></dc:title>
      </cc:Work>
    </rdf:RDF>
  </metadata>
  <g
     inkscape:label="Calque 1"
     inkscape:groupmode="layer"
     id="layer1"
     transform="translate(0,-97.239557)">
    <rect
       style="fill:#ff00ff;fill-opacity:0;stroke-width:0.34374374"
       id="rect977"
       width="200.33815"
       height="44.042168"
       x="12.013923"
       y="168.55348" />
    <path
       d="m -57.757355,154.11539 c 0,0.87323 0.765219,1.58095 1.709117,1.58095 0.943898,0 1.709118,-0.70772 1.709118,-1.58095 0,-0.57927 -0.337867,-1.08444 -0.840643,-1.35964 h 3.147721 v -0.64783 h -8.032392 v 0.64783 h 3.147722 c -0.502777,0.2752 -0.840643,0.78037 -0.840643,1.35964"
       style="fill:#ffffff;fill-opacity:1;fill-rule:nonzero;stroke:none;stroke-width:0.02501383"
       id="path5729"
       inkscape:connector-curvature="0" />
    <path
       d="m -57.367209,158.66916 0.380533,1.89199 c 0.205737,-0.0356 0.416162,-0.0594 0.625803,-0.0709 l -0.124854,-1.92085 c -0.294951,0.0161 -0.591729,0.0498 -0.881482,0.0998"
       style="fill:#ffffff;fill-opacity:1;fill-rule:nonzero;stroke:none;stroke-width:0.02501383"
       id="path5731"
       inkscape:connector-curvature="0" />
    <path
       d="m -59.059153,159.1676 0.874717,1.74621 c 0.189347,-0.081 0.386503,-0.15203 0.586258,-0.21097 l -0.63074,-1.83378 c -0.282727,0.0832 -0.562071,0.18355 -0.830235,0.29854"
       style="fill:#ffffff;fill-opacity:1;fill-rule:nonzero;stroke:none;stroke-width:0.02501383"
       id="path5733"
       inkscape:connector-curvature="0" />
    <path
       d="m -53.350479,161.19479 c 0.177645,0.10272 0.350613,0.21697 0.513434,0.33918 l 1.311684,-1.4941 c -0.229414,-0.17201 -0.472085,-0.33246 -0.722043,-0.47704 l -1.103075,1.63196"
       style="fill:#ffffff;fill-opacity:1;fill-rule:nonzero;stroke:none;stroke-width:0.02501383"
       id="path5735"
       inkscape:connector-curvature="0" />
    <path
       d="m -53.855594,158.87243 -0.63595,1.83234 c 0.199755,0.0595 0.397433,0.13086 0.587314,0.21217 l 0.876011,-1.74549 c -0.267903,-0.11499 -0.546215,-0.21555 -0.827375,-0.29902"
       style="fill:#ffffff;fill-opacity:1;fill-rule:nonzero;stroke:none;stroke-width:0.02501383"
       id="path5737"
       inkscape:connector-curvature="0" />
    <path
       d="m -55.727794,160.49043 c 0.209642,0.012 0.420577,0.0363 0.626575,0.072 l 0.38261,-1.89175 c -0.289491,-0.0501 -0.585486,-0.084 -0.880176,-0.1008 l -0.129009,1.92062"
       style="fill:#ffffff;fill-opacity:1;fill-rule:nonzero;stroke:none;stroke-width:0.02501383"
       id="path5739"
       inkscape:connector-curvature="0" />
    <path
       d="m -58.740276,161.19142 -1.100476,-1.6334 c -0.249958,0.1441 -0.493151,0.30431 -0.723076,0.47656 l 1.309085,1.49578 c 0.163854,-0.12268 0.336822,-0.23671 0.514467,-0.33894"
       style="fill:#ffffff;fill-opacity:1;fill-rule:nonzero;stroke:none;stroke-width:0.02501383"
       id="path5741"
       inkscape:connector-curvature="0" />
    <path
       d="m -54.33912,226.28732 c 0,-0.87325 -0.76522,-1.58103 -1.709118,-1.58103 -0.943898,0 -1.709117,0.70778 -1.709117,1.58103 0,0.57921 0.337866,1.08439 0.840643,1.3596 h -3.147722 v 0.64784 h 8.032392 v -0.64784 h -3.147721 c 0.502776,-0.27521 0.840643,-0.78039 0.840643,-1.3596"
       style="fill:#ffffff;fill-opacity:1;fill-rule:nonzero;stroke:none;stroke-width:0.02501383"
       id="path5743"
       inkscape:connector-curvature="0" />
    <path
       d="m -53.351001,219.20814 1.104119,1.63146 c 0.249175,-0.14433 0.491597,-0.30454 0.720999,-0.47678 l -1.31064,-1.49457 c -0.163865,0.12291 -0.336834,0.23736 -0.514478,0.33989"
       style="fill:#ffffff;fill-opacity:1;fill-rule:nonzero;stroke:none;stroke-width:0.02501383"
       id="path5745"
       inkscape:connector-curvature="0" />
    <path
       d="m -58.740015,219.2115 c -0.177383,-0.10249 -0.350613,-0.2163 -0.514728,-0.3392 l -1.308563,1.49653 c 0.230186,0.17176 0.473379,0.33198 0.722815,0.47586 l 1.100476,-1.63319"
       style="fill:#ffffff;fill-opacity:1;fill-rule:nonzero;stroke:none;stroke-width:0.02501383"
       id="path5747"
       inkscape:connector-curvature="0" />
    <path
       d="m -58.229429,221.53337 0.631773,-1.8338 c -0.199233,-0.0587 -0.396911,-0.12966 -0.587563,-0.21123 l -0.873151,1.74696 c 0.268686,0.11501 0.547769,0.21528 0.828941,0.29807"
       style="fill:#ffffff;fill-opacity:1;fill-rule:nonzero;stroke:none;stroke-width:0.02501383"
       id="path5749"
       inkscape:connector-curvature="0" />
    <path
       d="m -53.027958,221.23117 -0.876533,-1.74519 c -0.189881,0.0813 -0.387298,0.1527 -0.586531,0.21162 l 0.634906,1.83313 c 0.281433,-0.0835 0.559994,-0.18427 0.828158,-0.29956"
       style="fill:#ffffff;fill-opacity:1;fill-rule:nonzero;stroke:none;stroke-width:0.02501383"
       id="path5751"
       inkscape:connector-curvature="0" />
    <path
       d="m -56.360101,219.91223 c -0.210413,-0.0118 -0.42136,-0.0353 -0.626836,-0.0707 l -0.379489,1.89204 c 0.288709,0.0495 0.584965,0.0832 0.880438,0.0998 l 0.125887,-1.9211"
       style="fill:#ffffff;fill-opacity:1;fill-rule:nonzero;stroke:none;stroke-width:0.02501383"
       id="path5753"
       inkscape:connector-curvature="0" />
    <path
       d="m -54.718348,221.73183 -0.383643,-1.89177 c -0.205998,0.0358 -0.416161,0.0598 -0.624509,0.0717 l 0.125899,1.92058 c 0.294689,-0.0163 0.591207,-0.0503 0.882253,-0.10056"
       style="fill:#ffffff;fill-opacity:1;fill-rule:nonzero;stroke:none;stroke-width:0.02501383"
       id="path5755"
       inkscape:connector-curvature="0" />
    <g
       id="g1000"
       transform="translate(-28.700859,60.832508)">
      <path
         sodipodi:nodetypes="ccccccccccc"
         d="M 51.398417,72.06721 H 158.44894 168.5677 v 24.586682 h -6.49597 V 78.563147 H 47.775608 V 96.653892 H 41.27966 V 72.06721 h 10.118757"
         style="fill:#666666;fill-opacity:1;fill-rule:evenodd;stroke:none;stroke-width:0.0555518"
         id="path305"
         inkscape:connector-curvature="0" />
      <g
         transform="matrix(1.299189,0,0,1.299189,-31.491146,-26.098162)"
         id="g1206">
        <path
           sodipodi:nodetypes="ccccc"
           inkscape:connector-curvature="0"
           id="rect983"
           d="m 64.081925,58.002758 h 81.953605 l 3.06942,13.124899 H 61.012509 Z"
           style="fill:#4d4d4d;fill-opacity:1;stroke-width:0.22881123" />
        <g
           id="g848"
           style="fill:#ffe680"
           transform="matrix(1.1350381,0,0,-1.1350381,-253.59777,179.41707)">
          <g
             id="g5679"
             transform="matrix(0.80185066,0,0,0.80185066,62.602224,21.703486)"
             style="fill:#ffe680">
            <path
               inkscape:connector-curvature="0"
               id="path309"
               style="fill:#ffe680;fill-opacity:1;fill-rule:evenodd;stroke:none;stroke-width:0.0554173"
               d="m 315.93397,116.73348 1.51291,-4.69437 4.93323,0.0103 -3.99447,-2.89116 1.53284,-4.68773 -3.98451,2.90663 -3.98506,-2.90663 1.53288,4.68773 -3.99451,2.89116 4.92994,-0.0103 1.51675,4.69437" />
            <path
               inkscape:connector-curvature="0"
               id="path311"
               style="fill:#ffe680;fill-opacity:1;fill-rule:evenodd;stroke:none;stroke-width:0.0554173"
               d="m 299.12148,111.40677 1.18374,-3.67194 3.85927,0.0103 -3.12668,-2.26212 1.20034,-3.6681 -3.11667,2.27431 -3.11666,-2.27431 1.19978,3.6681 -3.12607,2.26212 3.8587,-0.0103 1.18425,3.67194" />
            <path
               inkscape:connector-curvature="0"
               id="path313"
               style="fill:#ffe680;fill-opacity:1;fill-rule:evenodd;stroke:none;stroke-width:0.0554173"
               d="m 282.30732,105.3112 0.78696,-2.43285 2.55526,0.004 -2.07096,-1.50011 0.79692,-2.429525 -2.06818,1.506795 -2.06484,-1.506795 0.79692,2.429525 -2.07152,1.50011 2.55532,-0.004 0.78412,2.43285" />
            <path
               inkscape:connector-curvature="0"
               id="path315"
               style="fill:#ffe680;fill-opacity:1;fill-rule:evenodd;stroke:none;stroke-width:0.0554173"
               d="m 332.74651,111.40677 -1.18758,-3.67194 -3.85541,0.0103 3.12334,-2.26212 -1.19706,-3.6681 3.11671,2.27431 3.11668,-2.27431 -1.20034,3.6681 3.12662,2.26212 -3.85925,-0.0103 -1.18371,3.67194" />
            <path
               inkscape:connector-curvature="0"
               id="path317"
               style="fill:#ffe680;fill-opacity:1;fill-rule:evenodd;stroke:none;stroke-width:0.0554173"
               d="m 349.55901,105.3112 -0.78418,-2.43285 -2.5586,0.004 2.07146,-1.50011 -0.79352,-2.429525 2.06484,1.506795 2.06818,-1.506795 -0.79692,2.429525 2.07096,1.50011 -2.55532,-0.004 -0.7869,2.43285" />
          </g>
        </g>
      </g>
      <g
         transform="matrix(0.85139337,0,0,-0.85139337,-27.401688,196.61795)"
         id="g300">
        <circle
           transform="scale(-1)"
           style="fill:#000000;stroke-width:0.19544688"
           r="61.10495"
           cy="-97.761703"
           cx="-155.42215"
           id="path262" />
        <path
           id="path189"
           d="m 155.43656,154.26732 c -4.11509,0.0455 -7.86056,-0.4519 -10.95959,-1.40956 -19.12877,-11.14255 -12.19614,-21.1716 -12.19614,-21.1716 27.858,18.8194 57.32614,10.21429 57.32614,10.21429 -10.72396,8.5881 -23.65408,12.25045 -34.17041,12.36687 z m -13.90118,-1.67954 c -13.55866,-4.08586 -22.39429,-9.96139 -26.37822,-15.76921 -2.86734,-8.12347 3.72695,-15.00433 3.72695,-15.00433 3.83842,3.46648 9.43484,7.08604 9.43484,7.08604 -4.64299,14.48531 13.21643,23.6875 13.21643,23.6875 z m 35.07369,-11.52141 c -23.92708,0.20154 -42.90502,-13.28183 -42.90502,-13.28017 17.64343,-16.15763 46.80242,-7.61467 77.26027,-34.358894 3.34345,17.271964 -6.87068,41.044164 -18.94298,45.501964 -5.26698,1.46371 -10.44627,2.09527 -15.41227,2.1371 z m -62.79044,-6.06392 c -4.9239,-4.54961 -10.9587,-14.84483 -11.68623,-20.58884 4.54961,4.27183 8.48148,-2.90927 8.48148,-2.90927 2.10479,3.21881 6.18958,7.36695 6.18958,7.36695 -6.23422,9.63224 -2.98483,16.13116 -2.98483,16.13116 z m 16.54273,-9.44486 c 0,0 -6.31412,-3.52954 -9.09976,-7.05827 15.78632,-22.843157 43.08724,-58.688025 68.90263,-64.444492 11.70022,5.84976 22.34869,28.229061 20.05752,35.286763 -37.85695,28.996109 -63.57842,19.562559 -79.86039,36.215999 z m -11.32837,-9.47264 c 0,0 -5.20043,-4.64297 -6.68584,-7.98613 6.68553,-20.05822 3.96082,-48.226144 29.34303,-63.516624 14.79632,-8.913322 39.49693,2.289742 45.87347,7.799466 -24.17068,4.678285 -48.47275,38.44542 -68.53066,63.703288 z m -14.37695,-3.24526 c -0.78251,0.0288 -1.70153,-0.25428 -2.77131,-1.02621 -2.484382,-3.18138 -3.581548,-13.38895 -1.68227,-23.689318 -0.0709,0.679301 0.0199,1.14394 0.27772,1.884418 1.14014,3.275382 6.40099,15.78052 8.02802,18.64751 0,0 -1.0575,4.08091 -3.85216,4.1836 z m -4.45358,-24.715528 c -22.02329,-115.866081 -11.011647,-57.933042 0,0 z m 9.73032,17.189238 c 0,0 -7.3389,-11.708295 -8.89898,-20.947606 3.30536,-16.698498 20.89108,-35.679489 36.69359,-39.597841 0,0 -18.11541,8.370753 -22.59072,37.870496 -2.04254,12.999977 -5.20389,22.674951 -5.20389,22.674951 z M 101.0338,84.365794 c -22.577514,-113.360502 -11.288756,-56.680252 0,0 z"
           style="fill:#c8b7b7;fill-opacity:1;fill-rule:nonzero;stroke:none;stroke-width:0.0778111"
           inkscape:connector-curvature="0"
           sodipodi:nodetypes="scccscccccscccsccccccccccccccccccsccccccccccc" />
        <path
           sodipodi:nodetypes="scccscccccccccccccscccccc"
           inkscape:connector-curvature="0"
           style="fill:#ff6600;fill-opacity:1;fill-rule:nonzero;stroke:none;stroke-width:0.0778111"
           d="m 155.43656,154.26732 c -4.11509,0.0455 -7.86056,-0.4519 -10.95959,-1.40956 -19.12877,-11.14255 -12.19614,-21.1716 -12.19614,-21.1716 27.858,18.8194 57.32614,10.21429 57.32614,10.21429 -10.72396,8.5881 -23.65408,12.25045 -34.17041,12.36687 z m -13.90118,-1.67954 c -13.55866,-4.08586 -22.39429,-9.96139 -26.37822,-15.76921 -2.86734,-8.12347 3.72695,-15.00433 3.72695,-15.00433 3.83842,3.46648 9.43484,7.08604 9.43484,7.08604 -4.64299,14.48531 13.21643,23.6875 13.21643,23.6875 z m -27.71675,-17.58533 c -4.9239,-4.54961 -10.9587,-14.84483 -11.68623,-20.58884 4.54961,4.27183 8.48148,-2.90927 8.48148,-2.90927 2.10479,3.21881 6.18958,7.36695 6.18958,7.36695 -6.23422,9.63224 -2.98483,16.13116 -2.98483,16.13116 z m -9.16259,-22.16276 c -0.78251,0.0288 -1.70153,-0.25428 -2.77131,-1.02621 -2.484382,-3.18138 -3.581548,-13.38895 -1.68227,-23.689318 -0.0709,0.679301 0.0199,1.14394 0.27772,1.884418 1.14014,3.275382 6.40099,15.78052 8.02802,18.64751 0,0 -1.0575,4.08091 -3.85216,4.1836 z m -4.45358,-24.715528 c -22.02329,-115.866081 -11.011647,-57.933042 0,0 z m 0.83134,-3.758368 c -22.577514,-113.360502 -11.288756,-56.680252 0,0 z"
           id="path278" />
      </g>
      <rect
         y="140.45245"
         x="51.603592"
         height="24.956186"
         width="101.1552"
         id="rect51"
         style="fill:#ffffff;fill-opacity:1;stroke-width:0.37606603" />
      <rect
         rx="3.6580365"
         ry="3.0004048"
         y="137.08441"
         x="31.010971"
         height="6.7360997"
         width="147.82545"
         id="rect280"
         style="fill:#000000;stroke-width:0.21913734" />
      <flowRoot
         xml:space="preserve"
         id="flowRoot317"
         style="font-style:normal;font-weight:normal;font-size:40px;line-height:1.25;font-family:sans-serif;text-align:center;letter-spacing:0px;word-spacing:0px;text-anchor:middle;fill:#b3b3b3;fill-opacity:1;stroke:none"
         transform="matrix(0.3857773,0,0,0.3857773,-45.906939,-108.74982)"><flowRegion
           id="flowRegion319"
           style="text-align:center;text-anchor:middle;fill:#b3b3b3;fill-opacity:1"><rect
             id="rect321"
             width="545.88641"
             height="311.12698"
             x="117.37972"
             y="665.7287"
             style="text-align:center;text-anchor:middle;fill:#b3b3b3;fill-opacity:1" /></flowRegion><flowPara
           id="flowPara323"
           style="font-style:normal;font-variant:normal;font-weight:bold;font-stretch:normal;font-size:74.66667175px;line-height:1;font-family:'SUPREME BW90';-inkscape-font-specification:'SUPREME BW90 Bold';fill:#b3b3b3;fill-opacity:1">BASKETBALL</flowPara><flowPara
           id="flowPara327"
           style="font-style:normal;font-variant:normal;font-weight:bold;font-stretch:normal;font-size:74.66667175px;line-height:1;font-family:'SUPREME BW90';-inkscape-font-specification:'SUPREME BW90 Bold';fill:#b3b3b3;fill-opacity:1">WORLD CUP</flowPara><flowPara
           id="flowPara1026"
           style="font-style:normal;font-variant:normal;font-weight:bold;font-stretch:normal;font-size:74.66667175px;line-height:1;font-family:'SUPREME BW90';-inkscape-font-specification:'SUPREME BW90 Bold';fill:#b3b3b3;fill-opacity:1">- 2018 -</flowPara><flowPara
           id="flowPara325"
           style="font-style:normal;font-variant:normal;font-weight:bold;font-stretch:normal;font-size:48px;line-height:1;font-family:'SUPREME BW90';-inkscape-font-specification:'SUPREME BW90 Bold';fill:#b3b3b3;fill-opacity:1" /></flowRoot>      <rect
         style="fill:#b3b3b3;fill-opacity:1;stroke-width:0.14500648"
         id="rect986"
         width="97.818298"
         height="4.457377"
         x="56.090851"
         y="232.0605"
         ry="1.9854125"
         rx="2.420577" />
    </g>
  </g>
</svg>
